<svg width="16" height="19" viewBox="0 0 16 19" fill="none" xmlns="http://www.w3.org/2000/svg">
<path d="M14.5539 2.08777L13.5062 0.695801C13.1574 0.231934 12.6999 0 12.2424 0C11.7849 0 11.3274 0.231934 10.9783 0.69543L1.13627 13.772L0.781561 18.0107C0.736873 18.5443 1.05332 19 1.4463 19C1.47115 19 1.49601 18.9981 1.52143 18.9944L4.70936 18.5265L14.5541 5.44617C15.2521 4.51881 15.2521 3.01514 14.5539 2.08777ZM4.29907 17.3924L1.70074 17.775L1.99009 14.3175L9.36055 4.52475L11.6723 7.59629L4.29907 17.3924ZM13.9221 4.60676L12.3041 6.7565L9.99233 3.68496L11.6103 1.53521C11.779 1.31107 12.0036 1.1875 12.2424 1.1875C12.4812 1.1875 12.7055 1.31107 12.8744 1.53521L13.9221 2.92719C14.2704 3.39031 14.2704 4.14363 13.9221 4.60676Z" fill="#FEAF00"/>
</svg>
