<svg width="13" height="18" viewBox="0 0 13 18" fill="none" xmlns="http://www.w3.org/2000/svg">
<g clip-path="url(#clip0_117_33)">
<path d="M0.603939 2.25H3.39946L4.30263 0.675C4.42281 0.465419 4.57865 0.295313 4.75781 0.178154C4.93697 0.0609948 5.13452 0 5.33482 0L7.48523 0C7.68553 0 7.88308 0.0609948 8.06224 0.178154C8.2414 0.295313 8.39724 0.465419 8.51742 0.675L9.42059 2.25H12.2161C12.2731 2.25 12.3278 2.27963 12.3682 2.33238C12.4085 2.38512 12.4312 2.45666 12.4312 2.53125V3.09375C12.4312 3.16834 12.4085 3.23988 12.3682 3.29262C12.3278 3.34537 12.2731 3.375 12.2161 3.375H11.7081L10.8157 16.4637C10.7868 16.8833 10.639 17.2737 10.4012 17.558C10.1634 17.8423 9.85295 17.9999 9.5308 18H3.28925C2.9671 17.9999 2.65662 17.8423 2.41886 17.558C2.18109 17.2737 2.03325 16.8833 2.00439 16.4637L1.11197 3.375H0.603939C0.546907 3.375 0.49221 3.34537 0.451882 3.29262C0.411555 3.23988 0.388899 3.16834 0.388899 3.09375V2.53125C0.388899 2.45666 0.411555 2.38512 0.451882 2.33238C0.49221 2.27963 0.546907 2.25 0.603939 2.25ZM7.82929 1.35C7.78909 1.28034 7.73711 1.22379 7.67742 1.18475C7.61774 1.14572 7.55196 1.12527 7.48523 1.125H5.33482C5.26809 1.12527 5.20231 1.14572 5.14263 1.18475C5.08294 1.22379 5.03096 1.28034 4.99076 1.35L4.47466 2.25H8.34539L7.82929 1.35ZM2.86186 16.3617C2.87072 16.5019 2.91961 16.6325 2.99882 16.7277C3.07803 16.8228 3.18172 16.8754 3.28925 16.875H9.5308C9.63833 16.8754 9.74203 16.8228 9.82123 16.7277C9.90044 16.6325 9.94934 16.5019 9.95819 16.3617L10.8452 3.375H1.97482L2.86186 16.3617Z" fill="#FEAF00"/>
</g>
<defs>
<clipPath id="clip0_117_33">
<rect width="12.0423" height="18" fill="white" transform="matrix(-1 0 0 1 12.4312 0)"/>
</clipPath>
</defs>
</svg>
