<svg width="24" height="24" viewBox="0 0 24 24" fill="none" xmlns="http://www.w3.org/2000/svg">
<path fill-rule="evenodd" clip-rule="evenodd" d="M5.18936 3.44053C6.2221 2.96968 7.38648 2.87283 8.48282 3.16659C9.01628 3.30953 9.33287 3.85787 9.18993 4.39133C9.04698 4.9248 8.49865 5.24138 7.96518 5.09844C7.31735 4.92485 6.6293 4.98208 6.01905 5.26031C5.40879 5.53854 4.91436 6.02043 4.62055 6.62334C4.32674 7.22624 4.25186 7.91259 4.40874 8.56467C4.56563 9.21675 4.94452 9.79392 5.48042 10.1972C5.77115 10.416 5.92011 10.7754 5.86935 11.1357C5.8186 11.496 5.57614 11.8003 5.23628 11.9303C4.55694 12.19 3.93286 12.5913 3.40869 13.1154C3.23209 13.292 3.06949 13.4799 2.92157 13.6774C2.61334 14.0889 2.63344 14.4336 2.79565 14.7423C2.98719 15.1068 3.42732 15.4847 4.04987 15.6806C4.5767 15.8463 4.86944 16.4077 4.70371 16.9345C4.53799 17.4614 3.97656 17.7541 3.44972 17.5884C2.42792 17.267 1.50917 16.5936 1.02521 15.6727C0.511928 14.6959 0.539903 13.521 1.32082 12.4784C1.52546 12.2052 1.75034 11.9453 1.99447 11.7012C2.37088 11.3248 2.78457 10.9942 3.22685 10.7131C2.87086 10.2101 2.61052 9.64053 2.46424 9.03252C2.19873 7.929 2.32545 6.76749 2.82267 5.74719C3.31989 4.72688 4.15663 3.91138 5.18936 3.44053ZM17.9807 5.26031C17.3704 4.98208 16.6824 4.92485 16.0345 5.09844C15.5011 5.24138 14.9527 4.9248 14.8098 4.39133C14.6668 3.85787 14.9834 3.30953 15.5169 3.16659C16.6132 2.87283 17.7776 2.96968 18.8103 3.44053C19.8431 3.91138 20.6798 4.72688 21.177 5.74719C21.6742 6.76749 21.801 7.929 21.5355 9.03252C21.3892 9.64053 21.1288 10.2101 20.7728 10.7131C21.2151 10.9942 21.6288 11.3248 22.0052 11.7012C22.2494 11.9453 22.4742 12.2052 22.6789 12.4784C23.4598 13.521 23.4878 14.6959 22.9745 15.6727C22.4905 16.5936 21.5718 17.267 20.55 17.5884C20.0231 17.7541 19.4617 17.4614 19.296 16.9345C19.1303 16.4077 19.423 15.8463 19.9498 15.6806C20.5724 15.4847 21.0125 15.1068 21.2041 14.7423C21.3663 14.4336 21.3864 14.0889 21.0781 13.6774C20.9302 13.4799 20.7676 13.292 20.591 13.1154C20.0668 12.5913 19.4428 12.19 18.7634 11.9303C18.4236 11.8003 18.1811 11.496 18.1304 11.1357C18.0796 10.7754 18.2285 10.416 18.5193 10.1972C19.0552 9.79392 19.4341 9.21675 19.591 8.56467C19.7478 7.91259 19.673 7.22624 19.3792 6.62334C19.0853 6.02043 18.5909 5.53854 17.9807 5.26031ZM12 7C10.4045 7 9.11109 8.2934 9.11109 9.88889C9.11109 11.4844 10.4045 12.7778 12 12.7778C13.5955 12.7778 14.8889 11.4844 14.8889 9.88889C14.8889 8.2934 13.5955 7 12 7ZM15.2434 13.5471C16.2528 12.6515 16.8889 11.3444 16.8889 9.88889C16.8889 7.18883 14.7 5 12 5C9.29992 5 7.11109 7.18883 7.11109 9.88889C7.11109 11.3444 7.7472 12.6515 8.75659 13.5471C8.07381 13.8902 7.4436 14.3427 6.89312 14.8932C6.64899 15.1373 6.4241 15.3972 6.21947 15.6704C5.76084 16.2826 5.54487 16.9651 5.5829 17.6538C5.62035 18.3319 5.89927 18.939 6.29803 19.4291C7.08272 20.3936 8.39844 21.0001 9.77778 21.0001H14.2222C15.6016 21.0001 16.9173 20.3936 17.702 19.4291C18.1007 18.939 18.3797 18.3319 18.4171 17.6538C18.4551 16.9651 18.2392 16.2826 17.7805 15.6704C17.5759 15.3972 17.351 15.1373 17.1069 14.8932C16.5564 14.3427 15.9262 13.8902 15.2434 13.5471ZM12 14.7778C10.615 14.7778 9.28669 15.328 8.30733 16.3074C8.13074 16.484 7.96814 16.6719 7.82021 16.8694C7.61665 17.1411 7.57012 17.367 7.57986 17.5435C7.59019 17.7306 7.66931 17.9455 7.84944 18.1669C8.22253 18.6255 8.94797 19.0001 9.77778 19.0001H14.2222C15.052 19.0001 15.7775 18.6255 16.1506 18.1669C16.3307 17.9455 16.4098 17.7306 16.4201 17.5435C16.4299 17.367 16.3834 17.1411 16.1798 16.8694C16.0319 16.6719 15.8693 16.484 15.6927 16.3074C14.7133 15.328 13.385 14.7778 12 14.7778Z" fill="black"/>
</svg>
