<svg width="157" height="157" viewBox="0 0 157 157" fill="none" xmlns="http://www.w3.org/2000/svg">
<path d="M156.324 78.8823C156.324 63.4321 151.742 48.3289 143.158 35.4825C134.575 22.6361 122.374 12.6236 108.1 6.71104C93.8261 0.798495 78.1193 -0.748495 62.966 2.26569C47.8126 5.27988 33.8934 12.7199 22.9684 23.6448C12.0435 34.5698 4.60349 48.489 1.5893 63.6423C-1.42489 78.7957 0.122104 94.5025 6.03464 108.777C11.9472 123.051 21.9597 135.251 34.8061 143.835C47.6525 152.418 62.7557 157 78.2059 157C98.9135 156.966 118.763 148.724 133.406 134.082C148.048 119.439 156.289 99.5899 156.324 78.8823ZM151.379 76.4412H139.367C139.575 74.3154 140.1 72.2327 140.923 70.2619C141.099 69.8447 141.156 69.3866 141.086 68.939C141.017 68.4914 140.824 68.072 140.53 67.7278C138.607 65.4591 137.154 62.8312 136.254 59.9966C135.315 57.1957 134.956 54.2332 135.198 51.2892C135.238 50.8338 135.149 50.3765 134.942 49.9692C134.734 49.5618 134.417 49.2209 134.025 48.9851C128.952 45.8402 125.314 40.8314 123.893 35.0341C123.791 34.5855 123.564 34.1748 123.239 33.8494C122.913 33.5241 122.503 33.2972 122.054 33.1949C119.174 32.5135 116.462 31.2557 114.082 29.4973C113 28.7087 111.988 27.8272 111.059 26.8629L116.9 16.7446C127.105 23.1012 135.589 31.8721 141.602 42.2831C147.615 52.6941 150.973 64.4253 151.379 76.4412ZM135.888 88.0189C134.012 90.4922 132.569 93.2665 131.622 96.2233C130.636 99.1808 130.171 102.287 130.249 105.404C125.113 108.989 121.332 114.196 119.513 120.189C116.533 121.079 113.727 122.473 111.219 124.312C110.282 125 109.388 125.745 108.542 126.543L105.939 122.034C108.031 120.184 109.419 117.667 109.867 114.91C110.316 112.154 109.799 109.326 108.402 106.908C107.006 104.489 104.816 102.627 102.204 101.638C99.5926 100.648 96.7191 100.591 94.0705 101.477L82.4346 81.3235H134.458C134.645 83.6075 135.126 85.8579 135.888 88.0189ZM20.5236 69.7458C22.4003 67.2725 23.8429 64.4982 24.7897 61.5414C25.7761 58.5839 26.2408 55.4774 26.1629 52.3608C28.7224 50.5966 30.9577 48.4033 32.77 45.8776C34.612 43.3673 36.0087 40.559 36.899 37.5755C39.8793 36.6861 42.6847 35.2915 45.1928 33.4523C46.1302 32.7647 47.0242 32.0198 47.8699 31.2221L50.4727 35.7302C48.3811 37.581 46.9934 40.0979 46.5446 42.8545C46.0957 45.6111 46.6134 48.4382 48.0099 50.8569C49.4063 53.2757 51.5958 55.1375 54.2075 56.1271C56.8193 57.1167 59.6927 57.1733 62.3414 56.2873L73.9772 76.4412H21.9541C21.7671 74.1572 21.2863 71.9068 20.5236 69.7458ZM134.458 76.4412H82.4346L108.542 31.2225C109.385 32.0179 110.276 32.7606 111.211 33.4464C113.721 35.2883 116.529 36.685 119.513 37.5754C120.402 40.5557 121.797 43.3611 123.636 45.8692C125.45 48.3982 127.687 50.5944 130.249 52.3607C130.17 55.4699 130.633 58.5691 131.615 61.52C132.563 64.4845 134.008 67.2661 135.888 69.7458C135.126 71.9068 134.645 74.1572 134.458 76.4412ZM78.2059 73.9992L66.6062 53.908C68.7899 52.0763 70.2584 49.5337 70.7536 46.7268C71.2488 43.92 70.7391 41.0284 69.314 38.56C67.8889 36.0917 65.6395 34.2045 62.9611 33.2299C60.2826 32.2554 57.3465 32.2558 54.6683 33.2312L51.2849 27.3708C51.4146 27.1913 51.5593 27.022 51.6843 26.8393C54.7937 26.9218 57.8936 26.4595 60.8436 25.4733C63.8081 24.5258 66.5897 23.0808 69.0695 21.2001C74.99 23.2384 81.422 23.2384 87.3425 21.2001C89.8158 23.0768 92.5901 24.5194 95.5469 25.4662C98.5046 26.4519 101.611 26.9165 104.728 26.8393C104.853 27.022 104.997 27.1913 105.127 27.3708L78.2059 73.9992ZM53.0096 40.1242L59.8166 51.9142C59.4402 51.9827 59.059 52.0212 58.6765 52.0294C56.7349 52.0273 54.8733 51.255 53.5004 49.882C52.1274 48.5091 51.3551 46.6475 51.353 44.7059C51.3602 43.0333 51.9455 41.4146 53.0096 40.1242ZM64.1053 49.5762L57.159 37.5449C58.6695 37.2169 60.2451 37.3772 61.6586 38.0028C63.072 38.6284 64.2502 39.6868 65.023 41.0254C65.7959 42.364 66.1235 43.9136 65.9585 45.4505C65.7936 46.9873 65.1446 48.432 64.1053 49.5762ZM21.9541 81.3235H73.9772L47.8702 126.542C47.0271 125.747 46.1357 125.004 45.2012 124.318C42.6909 122.476 39.8826 121.08 36.899 120.189C35.0798 114.196 31.2985 108.989 26.1629 105.404C26.2417 102.295 25.7794 99.1956 24.7969 96.2447C23.8493 93.2802 22.4043 90.4985 20.5236 88.0188C21.2863 85.8578 21.7671 83.6075 21.9541 81.3235ZM78.2059 83.7654L89.8057 103.857C87.622 105.688 86.1535 108.231 85.6583 111.038C85.1631 113.845 85.6728 116.736 87.0979 119.205C88.523 121.673 90.7724 123.56 93.4508 124.535C96.1292 125.509 99.0654 125.509 101.744 124.533L105.127 130.394C104.997 130.573 104.853 130.743 104.728 130.925C101.619 130.852 98.5205 131.314 95.5683 132.291C92.6038 133.239 89.8222 134.684 87.3424 136.565C81.4234 134.518 74.9884 134.518 69.0694 136.565C66.5961 134.688 63.8218 133.245 60.8649 132.299C57.9074 131.312 54.801 130.848 51.6843 130.925C51.5593 130.743 51.4146 130.573 51.2849 130.394L78.2059 83.7654ZM103.402 117.64L96.5953 105.85C96.9717 105.782 97.3529 105.744 97.7354 105.735C99.677 105.737 101.539 106.51 102.912 107.883C104.285 109.256 105.057 111.117 105.059 113.059C105.052 114.731 104.466 116.35 103.402 117.64ZM92.3066 108.189L99.2529 120.22C97.7424 120.548 96.1668 120.387 94.7533 119.762C93.3399 119.136 92.1617 118.078 91.3889 116.739C90.616 115.401 90.2884 113.851 90.4534 112.314C90.6183 110.777 91.2673 109.333 92.3066 108.189ZM112.679 14.2905L107.818 22.7105C107.569 22.4247 107.257 22.2015 106.906 22.0589C106.556 21.9164 106.176 21.8586 105.799 21.8902C102.847 22.1323 99.8774 21.7705 97.0702 20.8269C94.2434 19.9278 91.6229 18.477 89.3605 16.5584C89.0164 16.2638 88.597 16.0709 88.1494 16.0014C87.7017 15.9319 87.2436 15.9886 86.8264 16.1651C81.2979 18.406 75.114 18.406 69.5855 16.1651C69.168 15.99 68.7102 15.9341 68.2629 16.0036C67.8155 16.073 67.3962 16.2651 67.0514 16.5584C64.7827 18.4813 62.1548 19.9346 59.3202 20.8341C56.5194 21.7733 53.5568 22.1326 50.6128 21.8902C50.2356 21.8601 49.8567 21.9188 49.5063 22.0614C49.1559 22.204 48.8438 22.4267 48.5949 22.7116L43.733 14.2905C54.3374 8.61603 66.1787 5.64704 78.2059 5.64704C90.2332 5.64704 102.074 8.61603 112.679 14.2905ZM39.5114 16.7446L45.353 26.8628C44.4211 27.8293 43.4067 28.7129 42.3214 29.5033C39.9433 31.2589 37.2343 32.5147 34.3577 33.1949C33.9091 33.2971 33.4984 33.524 33.1731 33.8494C32.8477 34.1748 32.6208 34.5854 32.5185 35.0341C31.8372 37.9139 30.5793 40.6258 28.8209 43.0061C27.1024 45.4136 24.9135 47.4475 22.3866 48.9851C21.9951 49.2209 21.6776 49.5618 21.4702 49.9692C21.2629 50.3765 21.174 50.8338 21.2137 51.2892C21.4556 54.2408 21.0939 57.2108 20.1505 60.0181C19.2514 62.8449 17.8006 65.4654 15.882 67.7278C15.5877 68.072 15.395 68.4914 15.3255 68.939C15.256 69.3866 15.3125 69.8447 15.4886 70.2619C16.3122 72.2327 16.8369 74.3154 17.0454 76.4412H5.03263C5.43904 64.4253 8.79696 52.6941 14.81 42.2831C20.8231 31.8721 29.3065 23.1012 39.5114 16.7446ZM5.03263 81.3235H17.0454C16.8369 83.4492 16.3122 85.532 15.4887 87.5027C15.3125 87.92 15.256 88.3781 15.3255 88.8257C15.395 89.2733 15.5877 89.6926 15.882 90.0369C17.8049 92.3056 19.2582 94.9335 20.1577 97.7681C21.0965 100.569 21.4558 103.531 21.2138 106.476C21.1741 106.931 21.2629 107.388 21.4703 107.796C21.6776 108.203 21.9951 108.544 22.3867 108.78C24.9163 110.319 27.1073 112.356 28.8269 114.767C30.5825 117.145 31.8383 119.854 32.5185 122.731C32.6208 123.179 32.8477 123.59 33.1731 123.915C33.4984 124.241 33.9091 124.468 34.3577 124.57C37.2376 125.251 39.9494 126.509 42.3297 128.267C43.4122 129.056 44.4238 129.937 45.3532 130.902L39.5114 141.02C29.3065 134.663 20.8231 125.893 14.8101 115.482C8.79697 105.071 5.43904 93.3394 5.03263 81.3235ZM43.733 143.474L48.5945 135.054C48.8438 135.338 49.1561 135.561 49.5065 135.703C49.8569 135.846 50.2357 135.904 50.6128 135.874C53.5644 135.634 56.534 135.996 59.3417 136.938C62.1685 137.837 64.789 139.288 67.0514 141.206C67.3959 141.5 67.8153 141.692 68.2627 141.762C68.7102 141.831 69.1681 141.775 69.5855 141.6C75.114 139.359 81.2979 139.359 86.8264 141.6C87.2437 141.776 87.7017 141.832 88.1493 141.763C88.5968 141.693 89.0162 141.5 89.3605 141.206C91.6292 139.283 94.2571 137.83 97.0917 136.931C99.8931 135.994 102.855 135.635 105.799 135.874C106.176 135.906 106.556 135.848 106.906 135.705C107.257 135.563 107.569 135.34 107.818 135.054L112.679 143.474C102.074 149.149 90.2332 152.118 78.206 152.118C66.1787 152.118 54.3374 149.149 43.733 143.474ZM116.9 141.02L111.059 130.902C111.991 129.935 113.005 129.052 114.091 128.261C116.469 126.506 119.178 125.25 122.054 124.57C122.503 124.467 122.913 124.241 123.239 123.915C123.564 123.59 123.791 123.179 123.893 122.731C125.314 116.933 128.952 111.924 134.025 108.78C134.417 108.544 134.734 108.203 134.942 107.796C135.149 107.388 135.238 106.931 135.198 106.475C134.956 103.524 135.318 100.554 136.261 97.7466C137.16 94.9198 138.611 92.2993 140.53 90.0369C140.824 89.6926 141.017 89.2733 141.086 88.8257C141.156 88.3781 141.099 87.92 140.923 87.5027C140.1 85.5319 139.575 83.4492 139.367 81.3235H151.379C150.973 93.3394 147.615 105.071 141.602 115.482C135.589 125.893 127.105 134.663 116.9 141.02Z" fill="black"/>
<path d="M73.3236 130.147C75.2548 130.147 77.1427 129.574 78.7485 128.501C80.3543 127.428 81.6059 125.903 82.345 124.119C83.084 122.335 83.2774 120.371 82.9006 118.477C82.5239 116.583 81.5939 114.843 80.2282 113.478C78.8626 112.112 77.1227 111.182 75.2286 110.805C73.3344 110.428 71.371 110.622 69.5868 111.361C67.8025 112.1 66.2775 113.352 65.2045 114.957C64.1315 116.563 63.5588 118.451 63.5588 120.382C63.5618 122.971 64.5915 125.453 66.4221 127.284C68.2527 129.114 70.7347 130.144 73.3236 130.147ZM73.3236 115.5C74.2892 115.5 75.2331 115.786 76.036 116.323C76.8389 116.859 77.4647 117.622 77.8343 118.514C78.2038 119.406 78.3005 120.388 78.1121 121.335C77.9237 122.282 77.4587 123.152 76.7759 123.835C76.0931 124.517 75.2231 124.982 74.2761 125.171C73.329 125.359 72.3473 125.263 71.4552 124.893C70.563 124.523 69.8005 123.898 69.264 123.095C68.7275 122.292 68.4412 121.348 68.4412 120.382C68.4425 119.088 68.9573 117.847 69.8726 116.931C70.788 116.016 72.0291 115.501 73.3236 115.5Z" fill="black"/>
<path d="M36.7059 103.294C36.7059 105.225 37.2786 107.113 38.3516 108.719C39.4245 110.325 40.9496 111.576 42.7338 112.315C44.5181 113.055 46.4814 113.248 48.3756 112.871C50.2698 112.494 52.0097 111.564 53.3753 110.199C54.7409 108.833 55.6709 107.093 56.0477 105.199C56.4245 103.305 56.2311 101.342 55.492 99.5573C54.753 97.773 53.5014 96.248 51.8956 95.175C50.2898 94.102 48.4019 93.5294 46.4706 93.5294C43.8818 93.5323 41.3998 94.562 39.5692 96.3926C37.7386 98.2232 36.7089 100.705 36.7059 103.294ZM46.4706 98.4117C47.4362 98.4117 48.3802 98.6981 49.1831 99.2345C49.986 99.771 50.6118 100.534 50.9813 101.426C51.3508 102.318 51.4475 103.299 51.2591 104.247C51.0708 105.194 50.6058 106.064 49.923 106.746C49.2401 107.429 48.3702 107.894 47.4231 108.083C46.476 108.271 45.4943 108.174 44.6022 107.805C43.7101 107.435 42.9476 106.809 42.4111 106.007C41.8746 105.204 41.5883 104.26 41.5883 103.294C41.5895 102 42.1044 100.758 43.0197 99.8432C43.935 98.9278 45.1761 98.413 46.4706 98.4117Z" fill="black"/>
<path d="M83.0883 27.6176C81.157 27.6176 79.2691 28.1903 77.6633 29.2632C76.0575 30.3362 74.8059 31.8612 74.0668 33.6455C73.3278 35.4298 73.1344 37.3931 73.5112 39.2873C73.888 41.1815 74.818 42.9214 76.1836 44.287C77.5492 45.6526 79.2891 46.5826 81.1833 46.9594C83.0774 47.3361 85.0408 47.1428 86.8251 46.4037C88.6093 45.6646 90.1344 44.4131 91.2073 42.8073C92.2803 41.2015 92.853 39.3136 92.853 37.3823C92.85 34.7934 91.8203 32.3115 89.9897 30.4809C88.1591 28.6503 85.6771 27.6205 83.0883 27.6176ZM83.0883 42.2646C82.1226 42.2646 81.1787 41.9783 80.3758 41.4418C79.5729 40.9053 78.9471 40.1428 78.5776 39.2507C78.208 38.3586 78.1113 37.3769 78.2997 36.4298C78.4881 35.4827 78.9531 34.6128 79.6359 33.9299C80.3187 33.2471 81.1887 32.7821 82.1358 32.5938C83.0828 32.4054 84.0645 32.5021 84.9567 32.8716C85.8488 33.2411 86.6113 33.8669 87.1478 34.6698C87.6843 35.4727 87.9706 36.4167 87.9706 37.3823C87.9693 38.6768 87.4545 39.9179 86.5392 40.8332C85.6238 41.7485 84.3827 42.2634 83.0883 42.2646Z" fill="black"/>
<path d="M83.484 49.7277C83.1817 49.6208 82.8614 49.5746 82.5413 49.5916C82.2211 49.6086 81.9075 49.6885 81.6182 49.8268C81.329 49.965 81.0698 50.1589 80.8555 50.3974C80.6413 50.6358 80.476 50.9141 80.3693 51.2164C80.1239 51.9016 79.7297 52.5239 79.2151 53.0385C78.7004 53.5532 78.0782 53.9474 77.393 54.1928C77.0876 54.2971 76.8059 54.4609 76.5643 54.6748C76.3226 54.8887 76.1257 55.1483 75.9851 55.4387C75.8444 55.7292 75.7627 56.0446 75.7447 56.3668C75.7267 56.689 75.7728 57.0116 75.8802 57.3159C75.9877 57.6202 76.1544 57.9001 76.3708 58.1396C76.5871 58.379 76.8488 58.5732 77.1407 58.7108C77.4326 58.8485 77.7488 58.9269 78.0712 58.9416C78.3936 58.9562 78.7157 58.9068 79.0188 58.7962C80.3941 58.3136 81.6433 57.528 82.6739 56.4973C83.7046 55.4667 84.4903 54.2175 84.9728 52.8422C85.0796 52.5399 85.1259 52.2196 85.1088 51.8995C85.0918 51.5794 85.0119 51.2657 84.8736 50.9765C84.7354 50.6873 84.5415 50.4281 84.3031 50.2138C84.0646 49.9996 83.7863 49.8343 83.484 49.7277Z" fill="black"/>
<path d="M117.265 52.0294C115.333 52.0294 113.446 52.602 111.84 53.675C110.234 54.748 108.982 56.273 108.243 58.0573C107.504 59.8415 107.311 61.8049 107.688 63.6991C108.064 65.5932 108.994 67.3331 110.36 68.6988C111.726 70.0644 113.466 70.9944 115.36 71.3711C117.254 71.7479 119.217 71.5545 121.002 70.8155C122.786 70.0764 124.311 68.8248 125.384 67.219C126.457 65.6132 127.029 63.7253 127.029 61.7941C127.026 59.2052 125.997 56.7232 124.166 54.8926C122.336 53.062 119.854 52.0323 117.265 52.0294ZM117.265 66.6764C116.299 66.6764 115.355 66.3901 114.552 65.8536C113.749 65.3171 113.124 64.5546 112.754 63.6625C112.384 62.7703 112.288 61.7886 112.476 60.8416C112.665 59.8945 113.13 59.0245 113.812 58.3417C114.495 57.6589 115.365 57.1939 116.312 57.0055C117.259 56.8171 118.241 56.9138 119.133 57.2834C120.025 57.6529 120.788 58.2787 121.324 59.0816C121.861 59.8845 122.147 60.8284 122.147 61.7941C122.146 63.0885 121.631 64.3296 120.716 65.245C119.8 66.1603 118.559 66.6751 117.265 66.6764Z" fill="black"/>
<path d="M112.382 47.147C113.03 47.147 113.651 46.8898 114.109 46.432C114.566 45.9742 114.824 45.3533 114.824 44.7058C114.824 44.0584 114.566 43.4375 114.109 42.9797C113.651 42.5218 113.03 42.2646 112.382 42.2646C111.009 42.2655 109.651 42.5558 108.397 43.1164C107.143 43.6771 106.022 44.4957 105.105 45.5187C104.673 46.0012 104.451 46.6354 104.487 47.2819C104.522 47.9283 104.814 48.5341 105.296 48.966C105.778 49.3978 106.413 49.6203 107.059 49.5846C107.706 49.5488 108.311 49.2577 108.743 48.7753C109.201 48.2635 109.762 47.8541 110.389 47.5735C111.016 47.293 111.695 47.1476 112.382 47.147Z" fill="black"/>
<path d="M117.265 105.735C119.196 105.735 121.084 105.163 122.69 104.09C124.296 103.017 125.547 101.492 126.286 99.7073C127.025 97.9231 127.219 95.9597 126.842 94.0655C126.465 92.1714 125.535 90.4315 124.169 89.0658C122.804 87.7002 121.064 86.7702 119.17 86.3934C117.276 86.0167 115.312 86.21 113.528 86.9491C111.744 87.6882 110.219 88.9397 109.146 90.5455C108.073 92.1513 107.5 94.0392 107.5 95.9705C107.503 98.5594 108.533 101.041 110.363 102.872C112.194 104.703 114.676 105.732 117.265 105.735ZM117.265 91.0882C118.23 91.0882 119.174 91.3745 119.977 91.911C120.78 92.4475 121.406 93.21 121.775 94.1021C122.145 94.9943 122.242 95.9759 122.053 96.923C121.865 97.8701 121.4 98.7401 120.717 99.4229C120.034 100.106 119.164 100.571 118.217 100.759C117.27 100.947 116.288 100.851 115.396 100.481C114.504 100.112 113.742 99.4859 113.205 98.683C112.669 97.8801 112.382 96.9362 112.382 95.9705C112.384 94.676 112.898 93.4349 113.814 92.5196C114.729 91.6043 115.97 91.0895 117.265 91.0882Z" fill="black"/>
<path d="M100.176 95.9705C100.824 95.9705 101.445 95.7133 101.903 95.2555C102.36 94.7977 102.618 94.1768 102.618 93.5293C102.618 92.8424 102.764 92.1634 103.044 91.5364C103.325 90.9094 103.734 90.3485 104.246 89.8902C104.728 89.4584 105.019 88.8526 105.055 88.2061C105.091 87.5596 104.869 86.9254 104.437 86.443C104.005 85.9605 103.399 85.6694 102.753 85.6336C102.106 85.5978 101.472 85.8204 100.989 86.2522C99.9663 87.1686 99.1478 88.2903 98.5871 89.5441C98.0264 90.7979 97.7362 92.1559 97.7353 93.5293C97.7353 94.1768 97.9925 94.7977 98.4503 95.2555C98.9081 95.7133 99.5291 95.9705 100.176 95.9705Z" fill="black"/>
<path d="M31.8235 95.9705C32.471 95.9705 33.0919 95.7133 33.5497 95.2555C34.0075 94.7977 34.2647 94.1768 34.2647 93.5294C34.266 92.2349 34.7808 90.9938 35.6962 90.0784C36.6115 89.1631 37.8526 88.6483 39.1471 88.647C39.7945 88.647 40.4154 88.3898 40.8732 87.932C41.3311 87.4742 41.5883 86.8533 41.5883 86.2058C41.5883 85.5584 41.3311 84.9375 40.8732 84.4797C40.4154 84.0218 39.7945 83.7646 39.1471 83.7646C36.5582 83.7676 34.0763 84.7973 32.2457 86.6279C30.4151 88.4585 29.3853 90.9405 29.3824 93.5294C29.3824 94.1768 29.6396 94.7977 30.0974 95.2555C30.5552 95.7133 31.1761 95.9705 31.8235 95.9705Z" fill="black"/>
<path d="M41.5883 56.9117C38.3522 56.9155 35.2498 58.2027 32.9616 60.4909C30.6734 62.7792 29.3862 65.8816 29.3824 69.1176C29.3824 69.765 29.6396 70.386 30.0974 70.8438C30.5552 71.3016 31.1761 71.5588 31.8235 71.5588H51.353C52.0004 71.5588 52.6213 71.3016 53.0791 70.8438C53.5369 70.386 53.7941 69.765 53.7941 69.1176C53.7903 65.8816 52.5031 62.7792 50.2149 60.4909C47.9267 58.2027 44.8243 56.9155 41.5883 56.9117ZM34.6831 66.6764C35.188 65.2485 36.1232 64.0123 37.3598 63.1379C38.5965 62.2636 40.0737 61.7941 41.5883 61.7941C43.1028 61.7941 44.58 62.2636 45.8167 63.1379C47.0533 64.0123 47.9885 65.2485 48.4934 66.6764H34.6831Z" fill="black"/>
<path d="M58.6765 93.5294C60.0247 93.5294 61.1177 92.4364 61.1177 91.0882C61.1177 89.74 60.0247 88.647 58.6765 88.647C57.3283 88.647 56.2353 89.74 56.2353 91.0882C56.2353 92.4364 57.3283 93.5294 58.6765 93.5294Z" fill="black"/>
<path d="M61.1177 71.5588C62.4659 71.5588 63.5588 70.4658 63.5588 69.1176C63.5588 67.7694 62.4659 66.6764 61.1177 66.6764C59.7694 66.6764 58.6765 67.7694 58.6765 69.1176C58.6765 70.4658 59.7694 71.5588 61.1177 71.5588Z" fill="black"/>
<path d="M100.176 61.7941C101.525 61.7941 102.618 60.7011 102.618 59.3529C102.618 58.0047 101.525 56.9117 100.176 56.9117C98.8283 56.9117 97.7353 58.0047 97.7353 59.3529C97.7353 60.7011 98.8283 61.7941 100.176 61.7941Z" fill="black"/>
<path d="M78.2059 103.294C79.5541 103.294 80.6471 102.201 80.6471 100.853C80.6471 99.5047 79.5541 98.4117 78.2059 98.4117C76.8577 98.4117 75.7647 99.5047 75.7647 100.853C75.7647 102.201 76.8577 103.294 78.2059 103.294Z" fill="black"/>
<path d="M95.2941 71.5588C96.6424 71.5588 97.7353 70.4658 97.7353 69.1176C97.7353 67.7694 96.6424 66.6764 95.2941 66.6764C93.9459 66.6764 92.853 67.7694 92.853 69.1176C92.853 70.4658 93.9459 71.5588 95.2941 71.5588Z" fill="black"/>
</svg>
