<svg width="158" height="157" viewBox="0 0 158 157" fill="none" xmlns="http://www.w3.org/2000/svg">
<path d="M155.858 15.6705L155.095 15.2878C152.585 14.035 150.377 12.2533 148.622 10.0653C146.866 7.87735 145.606 5.33511 144.927 2.6135C144.795 2.08539 144.49 1.61661 144.061 1.28164C143.632 0.946667 143.103 0.764725 142.559 0.764725C142.015 0.764725 141.486 0.946667 141.057 1.28164C140.628 1.61661 140.323 2.08539 140.19 2.6135C139.512 5.33536 138.251 7.87783 136.496 10.066C134.74 12.2541 132.532 14.036 130.022 15.289L129.26 15.6705C128.855 15.8733 128.514 16.1849 128.276 16.5703C128.038 16.9558 127.912 17.3999 127.912 17.853C127.912 18.3061 128.038 18.7502 128.276 19.1356C128.514 19.5211 128.855 19.8327 129.26 20.0355L130.023 20.4181C132.533 21.671 134.741 23.4527 136.496 25.6407C138.251 27.8286 139.512 30.3709 140.19 33.0925C140.323 33.6206 140.627 34.0894 141.057 34.4243C141.486 34.7593 142.014 34.9412 142.559 34.9412C143.103 34.9412 143.632 34.7593 144.061 34.4243C144.49 34.0894 144.795 33.6206 144.927 33.0925C145.606 30.3706 146.867 27.8281 148.622 25.64C150.378 23.4518 152.586 21.67 155.096 20.4169L155.858 20.0355C156.263 19.8327 156.604 19.5211 156.842 19.1356C157.08 18.7502 157.206 18.3061 157.206 17.853C157.206 17.3999 157.08 16.9558 156.842 16.5703C156.604 16.1849 156.263 15.8733 155.858 15.6705ZM142.559 25.9297C140.763 22.7179 138.26 19.9561 135.24 17.8529C138.26 15.75 140.763 12.9881 142.559 9.77603C144.355 12.9879 146.858 15.7497 149.878 17.8529C146.857 19.9558 144.355 22.7176 142.559 25.9297Z" fill="black"/>
<path d="M17.9861 45.2982C18.6651 42.5764 19.9256 40.0339 21.681 37.8458C23.4364 35.6576 25.6451 33.8757 28.1549 32.6227L28.9166 32.2413C29.3217 32.0385 29.6624 31.7269 29.9005 31.3414C30.1386 30.956 30.2647 30.5118 30.2647 30.0588C30.2647 29.6057 30.1386 29.1616 29.9005 28.7761C29.6624 28.3906 29.3217 28.0791 28.9166 27.8763L28.1537 27.4936C25.6441 26.2407 23.4357 24.459 21.6805 22.2711C19.9253 20.0831 18.665 17.5409 17.9862 14.8193C17.854 14.2912 17.5492 13.8224 17.12 13.4874C16.6909 13.1524 16.1621 12.9705 15.6177 12.9705C15.0734 12.9705 14.5446 13.1524 14.1154 13.4874C13.6863 13.8224 13.3814 14.2912 13.2493 14.8193C12.5703 17.5411 11.3098 20.0836 9.55436 22.2718C7.79893 24.4599 5.5903 26.2418 3.08042 27.4948L2.31877 27.8763C1.91364 28.0791 1.57295 28.3906 1.33485 28.7761C1.09675 29.1616 0.970642 29.6057 0.970642 30.0588C0.970642 30.5118 1.09675 30.956 1.33485 31.3414C1.57295 31.7269 1.91364 32.0385 2.31877 32.2413L3.08164 32.6239C5.59126 33.8768 7.79964 35.6585 9.55484 37.8464C11.31 40.0344 12.5704 42.5766 13.2491 45.2982C13.3813 45.8263 13.6862 46.2951 14.1153 46.6301C14.5444 46.9651 15.0732 47.147 15.6176 47.147C16.162 47.147 16.6908 46.9651 17.1199 46.6301C17.549 46.2951 17.854 45.8263 17.9861 45.2982ZM8.29902 30.0588C11.3191 27.9559 13.8217 25.194 15.6177 21.9819C17.414 25.1937 19.9165 27.9555 22.9363 30.0588C19.9162 32.1617 17.4136 34.9235 15.6177 38.1356C13.8213 34.9238 11.3188 32.162 8.29902 30.0588Z" fill="black"/>
<path d="M135.235 73.9999V71.5588C135.217 58.7741 130.844 46.3771 122.835 36.4115C114.827 26.4459 103.662 19.5066 91.1806 16.7375C91.2428 16.298 91.2807 15.8554 91.2941 15.4117C91.2941 12.1745 90.0082 9.06989 87.7191 6.78085C85.4301 4.4918 82.3255 3.20583 79.0883 3.20583C75.8511 3.20583 72.7464 4.4918 70.4574 6.78085C68.1683 9.06989 66.8824 12.1745 66.8824 15.4117C66.8958 15.8554 66.9337 16.298 66.9959 16.7375C54.5147 19.5066 43.3496 26.4459 35.3412 36.4115C27.3328 46.3771 22.9591 58.7741 22.9412 71.5588V73.9999C20.9995 74.0021 19.138 74.7743 17.765 76.1473C16.3921 77.5203 15.6198 79.3818 15.6177 81.3235V83.7646C15.6198 85.7063 16.3921 87.5679 17.765 88.9408C19.138 90.3138 20.9995 91.0861 22.9412 91.0882H38.1424C38.1376 91.4126 38.1644 91.7368 38.2224 92.0561L42.1726 111.808C39.5544 113.455 37.3431 115.673 35.705 118.296C33.7463 121.47 32.708 125.125 32.7059 128.854V129.569L29.7936 135.375L28.3028 135.077C27.9487 135.006 27.5832 135.015 27.2327 135.102C26.8822 135.19 26.5555 135.354 26.2762 135.583C25.9968 135.812 25.7717 136.1 25.6172 136.426C25.4626 136.753 25.3824 137.109 25.3824 137.471V154.559C25.3824 155.206 25.6396 155.827 26.0974 156.285C26.5552 156.743 27.1761 157 27.8236 157H76.6471C77.2945 157 77.9154 156.743 78.3733 156.285C78.8311 155.827 79.0883 155.206 79.0883 154.559V147.235C79.0843 146.908 79.0136 146.585 78.8805 146.286C78.7475 145.987 78.5548 145.718 78.3144 145.496L100.054 129.68C100.291 129.478 100.504 129.25 100.688 128.999L124.382 91.0882H135.235C137.177 91.0861 139.039 90.3138 140.411 88.9408C141.784 87.5679 142.557 85.7063 142.559 83.7646V81.3235C142.557 79.3818 141.784 77.5203 140.411 76.1473C139.039 74.7743 137.177 74.0021 135.235 73.9999ZM71.7647 15.4117C71.7647 13.4694 72.5363 11.6066 73.9097 10.2332C75.2832 8.85976 77.1459 8.08818 79.0883 8.08818C81.0306 8.08818 82.8933 8.85976 84.2668 10.2332C85.6402 11.6066 86.4118 13.4694 86.4118 15.4117C86.4118 15.5786 86.3814 15.7364 86.3707 15.8997C81.5375 15.2491 76.639 15.2491 71.8059 15.8997C71.7951 15.7364 71.7647 15.5786 71.7647 15.4117ZM27.8236 71.5588C27.8236 70.7348 27.9086 69.9322 27.9472 69.1176H105.941C106.589 69.1176 107.21 68.8604 107.667 68.4026C108.125 67.9448 108.382 67.3239 108.382 66.6764C108.382 66.029 108.125 65.408 107.667 64.9502C107.21 64.4924 106.589 64.2352 105.941 64.2352H28.4085C30.1544 52.0383 36.2405 40.8802 45.5498 32.8086C54.8591 24.737 66.767 20.2935 79.0883 20.2935C91.4095 20.2935 103.317 24.737 112.627 32.8086C121.936 40.8802 128.022 52.0383 129.768 64.2352H115.706C115.058 64.2352 114.438 64.4924 113.98 64.9502C113.522 65.408 113.265 66.029 113.265 66.6764C113.265 67.3239 113.522 67.9448 113.98 68.4026C114.438 68.8604 115.058 69.1176 115.706 69.1176H130.229C130.268 69.9322 130.353 70.7348 130.353 71.5588V73.9999H27.8236V71.5588ZM37.3295 131.241C37.4998 130.902 37.5884 130.527 37.5883 130.147V128.854C37.5901 126.034 38.3745 123.27 39.8542 120.87C41.3582 118.466 43.4892 116.518 46.018 115.235C46.4929 114.994 46.8759 114.603 47.1083 114.124C47.3407 113.644 47.4099 113.102 47.3053 112.58L43.0082 91.0882H47.1086C49.3655 91.0888 51.5524 91.8717 53.2969 93.3035C55.0415 94.7353 56.2358 96.7275 56.6766 98.941L59.2442 111.726C59.6129 113.482 60.6002 115.047 62.0262 116.136L68.9886 121.345C70.2584 122.306 71.8077 122.825 73.4001 122.823H80.626C82.1031 122.822 83.5452 122.373 84.7624 121.537C85.9796 120.7 86.915 119.514 87.4453 118.135L96.2588 95.2327C96.7296 94.0168 97.5559 92.971 98.6298 92.2317C99.7038 91.4924 100.976 91.0939 102.279 91.0882H105.256L96.4639 126.255L72.2542 143.867L34.7582 136.368L37.3295 131.241ZM57.9948 91.0882H93.0089C92.4767 91.8293 92.0376 92.6332 91.7018 93.4817L82.8823 116.398C82.7066 116.853 82.3968 117.244 81.9939 117.52C81.591 117.795 81.114 117.942 80.6259 117.941H73.4C72.8703 117.946 72.3543 117.774 71.9339 117.451L64.9775 112.247C64.4926 111.876 64.1558 111.344 64.0275 110.748L61.4659 97.9897C60.9545 95.4176 59.7549 93.0323 57.9948 91.0882ZM74.2059 152.118H30.2647V140.448L74.2059 149.237V152.118ZM104.731 113.318L110.289 91.0882H118.625L104.731 113.318ZM137.676 83.7646C137.676 84.4118 137.418 85.0323 136.961 85.4899C136.503 85.9475 135.882 86.205 135.235 86.2058H22.9412C22.294 86.205 21.6736 85.9475 21.216 85.4899C20.7583 85.0323 20.5009 84.4118 20.5 83.7646V81.3235C20.5009 80.6763 20.7583 80.0559 21.216 79.5982C21.6736 79.1406 22.294 78.8831 22.9412 78.8823H135.235C135.882 78.8831 136.503 79.1406 136.961 79.5982C137.418 80.0559 137.676 80.6763 137.676 81.3235V83.7646Z" fill="black"/>
</svg>
