<svg width="148" height="157" viewBox="0 0 148 157" fill="none" xmlns="http://www.w3.org/2000/svg">
<path d="M146.32 145.54L121.256 108.896C120.578 107.925 119.677 107.132 118.629 106.581C117.58 106.031 116.415 105.741 115.231 105.735H90.941C90.2936 105.735 89.6727 105.992 89.2149 106.45C88.7571 106.908 88.4999 107.529 88.4999 108.176C88.4999 108.824 88.7571 109.445 89.2149 109.903C89.6727 110.36 90.2936 110.618 90.941 110.618H115.231C115.627 110.622 116.016 110.72 116.366 110.905C116.715 111.089 117.016 111.355 117.243 111.679L119.361 114.775L91.3177 130.147H17.8296L30.4456 111.705C30.6719 111.374 30.9743 111.103 31.3274 110.914C31.6805 110.725 32.0739 110.623 32.4744 110.618H56.7646C57.412 110.618 58.0329 110.36 58.4908 109.903C58.9486 109.445 59.2058 108.824 59.2058 108.176C59.2058 107.529 58.9486 106.908 58.4908 106.45C58.0329 105.992 57.412 105.735 56.7646 105.735H32.4744C31.2855 105.742 30.1157 106.035 29.0642 106.59C28.0126 107.145 27.1103 107.945 26.4335 108.923L1.38516 145.54C0.630988 146.64 0.1916 147.925 0.114438 149.256C0.0372772 150.588 0.325275 151.915 0.947334 153.094C1.56939 154.274 2.50187 155.261 3.64409 155.95C4.7863 156.638 6.09484 157.001 7.42841 157H140.277C141.611 157.001 142.919 156.638 144.062 155.95C145.204 155.261 146.136 154.274 146.758 153.095C147.38 151.915 147.668 150.588 147.591 149.256C147.514 147.925 147.075 146.64 146.32 145.54ZM91.9423 135.029C92.3523 135.029 92.7556 134.926 93.1152 134.729L122.131 118.824L126.185 124.751L75.6739 152.118H61.4126L75.3188 144.494C75.7942 144.233 76.1694 143.822 76.3852 143.325C76.601 142.828 76.6452 142.273 76.5108 141.748C76.3764 141.222 76.0711 140.757 75.6429 140.425C75.2147 140.092 74.6881 139.912 74.146 139.912H11.1497L14.4897 135.029H91.9423ZM5.26626 150.818C5.05325 150.426 4.95421 149.982 4.98032 149.536C5.00644 149.09 5.15667 148.661 5.41405 148.296L7.8098 144.794H64.615L51.2573 152.118H7.42841C6.98267 152.124 6.54392 152.006 6.16181 151.777C5.7797 151.547 5.46948 151.215 5.26626 150.818ZM142.439 150.818C142.236 151.215 141.926 151.547 141.544 151.777C141.162 152.006 140.723 152.124 140.277 152.118H85.9253L128.957 128.803L142.292 148.296C142.549 148.661 142.699 149.09 142.725 149.536C142.751 149.982 142.652 150.426 142.439 150.818Z" fill="black"/>
<path d="M60.2905 101.417C61.3616 101.677 62.3159 102.286 63.0033 103.148C63.6907 104.01 64.0723 105.075 64.0881 106.178V115.5C64.0881 118.09 65.1169 120.573 66.9482 122.405C68.7794 124.236 71.2631 125.265 73.8528 125.265C76.4426 125.265 78.9263 124.236 80.7575 122.405C82.5888 120.573 83.6175 118.09 83.6175 115.5V106.172C83.6056 105.116 83.9418 104.087 84.574 103.242C85.2062 102.397 86.0992 101.784 87.1148 101.498C99.1167 98.2835 109.543 90.8199 116.455 80.4948C123.366 70.1698 126.293 57.686 124.69 45.3649C123.088 33.0438 117.066 21.7239 107.743 13.5101C98.4202 5.29642 86.4319 0.747888 74.007 0.710348C61.5822 0.672807 49.5666 5.14882 40.1945 13.3061C30.8223 21.4633 24.7315 32.7466 23.0547 45.0578C21.3779 57.369 24.2291 69.8702 31.0783 80.2368C37.9274 90.6035 48.3082 98.1301 60.2905 101.417ZM71.3163 5.7151C72.1745 5.66974 73.0288 5.64706 73.8791 5.64706C85.1272 5.64645 95.9919 9.73589 104.448 17.1532C112.904 24.5704 118.375 34.8094 119.84 45.9617C121.305 57.114 118.665 68.4187 112.413 77.7686C106.16 87.1186 96.7202 93.8759 85.8537 96.7811C83.7999 97.3462 81.9896 98.5723 80.7028 100.27C79.416 101.967 78.7245 104.041 78.7352 106.172V115.5C78.7352 116.795 78.2208 118.037 77.3052 118.952C76.3896 119.868 75.1477 120.382 73.8528 120.382C72.558 120.382 71.3161 119.868 70.4005 118.952C69.4849 118.037 68.9705 116.795 68.9705 115.5V106.178C68.9427 104.008 68.2047 101.908 66.8696 100.197C65.5345 98.4872 63.6757 97.2617 61.5778 96.7084C51.9202 94.0297 43.3849 88.3058 37.2408 80.3878C31.0967 72.4698 27.6718 62.7804 27.4754 52.7601C27.382 40.7998 31.8742 29.2583 40.0284 20.5081C48.1826 11.7579 59.3792 6.46422 71.3163 5.7151Z" fill="black"/>
<path d="M73.8528 88.647C81.0951 88.647 88.1747 86.4995 94.1965 82.4759C100.218 78.4523 104.912 72.7334 107.683 66.0424C110.455 59.3514 111.18 51.9888 109.767 44.8857C108.354 37.7825 104.866 31.2579 99.7454 26.1368C94.6243 21.0157 88.0997 17.5283 80.9966 16.1154C73.8934 14.7025 66.5308 15.4276 59.8398 18.1991C53.1488 20.9706 47.43 25.664 43.4064 31.6857C39.3828 37.7075 37.2352 44.7871 37.2352 52.0294C37.246 61.7377 41.1074 71.0452 47.9722 77.91C54.837 84.7748 64.1445 88.6362 73.8528 88.647ZM73.8528 20.2941C80.1295 20.2941 86.2651 22.1554 91.484 25.6425C96.7028 29.1296 100.77 34.086 103.172 39.8848C105.574 45.6837 106.203 52.0646 104.978 58.2206C103.754 64.3767 100.731 70.0314 96.293 74.4696C91.8548 78.9079 86.2001 81.9304 80.0441 83.1549C73.888 84.3794 67.5071 83.751 61.7082 81.349C55.9094 78.947 50.953 74.8794 47.4659 69.6606C43.9788 64.4417 42.1175 58.306 42.1175 52.0294C42.127 43.6156 45.4736 35.5491 51.4231 29.5997C57.3725 23.6502 65.439 20.3036 73.8528 20.2941Z" fill="black"/>
<path d="M83.6175 51.6828V66.6765C83.6175 67.3239 83.8747 67.9448 84.3325 68.4026C84.7903 68.8605 85.4113 69.1176 86.0587 69.1176C86.7062 69.1176 87.3271 68.8605 87.7849 68.4026C88.2427 67.9448 88.4999 67.3239 88.4999 66.6765V51.6828C90.5907 51.1447 92.444 49.9282 93.7693 48.2238C95.0946 46.5195 95.817 44.4237 95.8234 42.2647V37.3824C95.8234 36.7349 95.5662 36.114 95.1084 35.6562C94.6506 35.1984 94.0297 34.9412 93.3822 34.9412C92.7348 34.9412 92.1139 35.1984 91.6561 35.6562C91.1983 36.114 90.9411 36.7349 90.9411 37.3824V42.2647C90.9383 43.1178 90.7113 43.9552 90.2828 44.6929C89.8544 45.4306 89.2395 46.0426 88.4999 46.4678V37.3824C88.4999 36.7349 88.2427 36.114 87.7849 35.6562C87.3271 35.1984 86.7062 34.9412 86.0587 34.9412C85.4113 34.9412 84.7903 35.1984 84.3325 35.6562C83.8747 36.114 83.6175 36.7349 83.6175 37.3824V46.4678C82.8779 46.0426 82.2631 45.4306 81.8346 44.6929C81.4061 43.9552 81.1791 43.1178 81.1764 42.2647V37.3824C81.1764 36.7349 80.9192 36.114 80.4614 35.6562C80.0035 35.1984 79.3826 34.9412 78.7352 34.9412C78.0877 34.9412 77.4668 35.1984 77.009 35.6562C76.5512 36.114 76.294 36.7349 76.294 37.3824V42.2647C76.3004 44.4237 77.0228 46.5195 78.3481 48.2238C79.6734 49.9282 81.5267 51.1447 83.6175 51.6828Z" fill="black"/>
<path d="M59.2057 56.5651V66.6765C59.2057 67.3239 59.4629 67.9448 59.9207 68.4026C60.3785 68.8605 60.9995 69.1176 61.6469 69.1176C62.2943 69.1176 62.9153 68.8605 63.3731 68.4026C63.8309 67.9448 64.0881 67.3239 64.0881 66.6765V56.5651C66.1789 56.027 68.0322 54.8105 69.3575 53.1062C70.6828 51.4019 71.4052 49.306 71.4116 47.1471C71.4116 42.2874 67.5162 34.9412 61.6469 34.9412C55.7776 34.9412 51.8822 42.2874 51.8822 47.1471C51.8886 49.306 52.611 51.4019 53.9363 53.1062C55.2616 54.8105 57.1149 56.027 59.2057 56.5651ZM61.6469 39.8235C64.0046 39.8235 66.5293 44.1218 66.5293 47.1471C66.5293 48.4419 66.0149 49.6838 65.0992 50.5994C64.1836 51.515 62.9418 52.0294 61.6469 52.0294C60.352 52.0294 59.1102 51.515 58.1946 50.5994C57.2789 49.6838 56.7646 48.4419 56.7646 47.1471C56.7646 44.1218 59.2892 39.8235 61.6469 39.8235Z" fill="black"/>
</svg>
