<svg width="157" height="157" viewBox="0 0 157 157" fill="none" xmlns="http://www.w3.org/2000/svg">
<path d="M136.794 122.203V73.2353H139.235C140.53 73.234 141.771 72.7192 142.686 71.8038C143.602 70.8885 144.116 69.6474 144.118 68.3529V61.0294C144.116 59.7349 143.602 58.4938 142.686 57.5785C141.771 56.6631 140.53 56.1483 139.235 56.1471H136.794V34.1765C136.792 32.2348 136.02 30.3733 134.647 29.0003C133.274 27.6273 131.412 26.8551 129.471 26.8529V12.2059C129.471 11.5584 129.213 10.9375 128.756 10.4797C128.298 10.0219 127.677 9.7647 127.029 9.7647H106.669C98.5309 3.43593 88.5154 0 78.2059 0C67.8964 0 57.8809 3.43593 49.7426 9.7647H29.3824C28.7349 9.7647 28.114 10.0219 27.6562 10.4797C27.1984 10.9375 26.9412 11.5584 26.9412 12.2059V26.8529C24.9995 26.8551 23.138 27.6273 21.765 29.0003C20.392 30.3733 19.6198 32.2348 19.6177 34.1765V56.1471H17.1765C15.882 56.1483 14.6409 56.6631 13.7256 57.5785C12.8102 58.4938 12.2954 59.7349 12.2941 61.0294V68.3529C12.2954 69.6474 12.8102 70.8885 13.7256 71.8038C14.6409 72.7192 15.882 73.234 17.1765 73.2353H19.6177V122.203C14.2505 122.809 9.29388 125.368 5.69232 129.393C2.09075 133.419 0.0960273 138.628 0.0882568 144.029L0.0882568 153.794C0.0882568 154.442 0.345451 155.062 0.803261 155.52C1.26107 155.978 1.88199 156.235 2.52943 156.235H153.882C154.53 156.235 155.151 155.978 155.609 155.52C156.066 155.062 156.324 154.442 156.324 153.794V144.029C156.316 138.628 154.321 133.419 150.719 129.393C147.118 125.368 142.161 122.809 136.794 122.203ZM151.267 141.588H136.794V127.133C140.441 127.663 143.82 129.356 146.428 131.961C149.035 134.565 150.733 137.942 151.267 141.588ZM124.588 26.8529H120.271C118.189 22.3694 115.401 18.2486 112.015 14.6471H124.588V26.8529ZM31.8235 14.6471H44.3966C41.0103 18.2486 38.2231 22.3694 36.1409 26.8529H31.8235V14.6471ZM24.5 34.1765C24.5009 33.5293 24.7583 32.9088 25.216 32.4512C25.6736 31.9936 26.294 31.7361 26.9412 31.7353H37.731C38.2113 31.7354 38.6809 31.5937 39.0811 31.328C39.4812 31.0623 39.794 30.6844 39.9803 30.2417C43.1524 22.7244 48.4705 16.3092 55.2696 11.7987C62.0686 7.28808 70.0467 4.88234 78.2059 4.88234C86.3651 4.88234 94.3432 7.28808 101.142 11.7987C107.941 16.3092 113.259 22.7244 116.432 30.2417C116.618 30.6844 116.931 31.0623 117.331 31.328C117.731 31.5937 118.2 31.7354 118.681 31.7353H129.471C130.118 31.7361 130.738 31.9936 131.196 32.4512C131.653 32.9088 131.911 33.5293 131.912 34.1765V56.1471H119.706V48.8235C119.706 48.1761 119.449 47.5552 118.991 47.0974C118.533 46.6395 117.912 46.3823 117.265 46.3823C116.617 46.3823 115.996 46.6395 115.539 47.0974C115.081 47.5552 114.824 48.1761 114.824 48.8235V56.1471H41.5883V48.8235C41.5883 48.1761 41.3311 47.5552 40.8732 47.0974C40.4154 46.6395 39.7945 46.3823 39.1471 46.3823C38.4996 46.3823 37.8787 46.6395 37.4209 47.0974C36.9631 47.5552 36.7059 48.1761 36.7059 48.8235V56.1471H24.5V34.1765ZM17.1765 61.0294H139.235L139.239 68.3529H17.1765V61.0294ZM19.6177 127.133V141.588H5.14464C5.67917 137.942 7.37648 134.565 9.98414 131.961C12.5918 129.356 15.9705 127.663 19.6177 127.133ZM4.97061 146.471H19.6177V151.353H4.97061V146.471ZM24.5 73.2353H131.912V151.353H97.7353V114.735C97.7353 109.556 95.6777 104.588 92.0153 100.926C88.3528 97.2634 83.3854 95.2059 78.2059 95.2059C73.0264 95.2059 68.059 97.2634 64.3965 100.926C60.734 104.588 58.6765 109.556 58.6765 114.735V151.353H24.5V73.2353ZM75.7647 151.353H63.5588V114.735C63.5647 111.277 64.793 107.932 67.0266 105.292C69.2603 102.653 72.3553 100.887 75.7647 100.309V151.353ZM80.6471 100.309C84.0565 100.887 87.1515 102.653 89.3851 105.292C91.6188 107.932 92.8471 111.277 92.853 114.735V151.353H80.6471V100.309ZM151.441 151.353H136.794V146.471H151.441V151.353Z" fill="black"/>
<path d="M87.9706 33.8298V46.3823C87.9706 47.0298 88.2278 47.6507 88.6856 48.1085C89.1434 48.5663 89.7643 48.8235 90.4118 48.8235C91.0592 48.8235 91.6801 48.5663 92.138 48.1085C92.5958 47.6507 92.853 47.0298 92.853 46.3823V33.8298C94.9437 33.2916 96.7969 32.0751 98.1222 30.3708C99.4475 28.6665 100.17 26.5707 100.176 24.4118V19.5294C100.176 18.882 99.9193 18.261 99.4615 17.8032C99.0037 17.3454 98.3827 17.0882 97.7353 17.0882C97.0879 17.0882 96.4669 17.3454 96.0091 17.8032C95.5513 18.261 95.2941 18.882 95.2941 19.5294V24.4118C95.2915 25.2649 95.0645 26.1024 94.6361 26.8401C94.2076 27.5779 93.5927 28.19 92.853 28.6151V19.5294C92.853 18.882 92.5958 18.261 92.138 17.8032C91.6801 17.3454 91.0592 17.0882 90.4118 17.0882C89.7643 17.0882 89.1434 17.3454 88.6856 17.8032C88.2278 18.261 87.9706 18.882 87.9706 19.5294V28.6151C87.2309 28.19 86.616 27.5779 86.1875 26.8401C85.759 26.1024 85.5321 25.2649 85.5294 24.4118V19.5294C85.5294 18.882 85.2722 18.261 84.8144 17.8032C84.3566 17.3454 83.7357 17.0882 83.0882 17.0882C82.4408 17.0882 81.8199 17.3454 81.3621 17.8032C80.9043 18.261 80.6471 18.882 80.6471 19.5294V24.4118C80.6536 26.5707 81.3761 28.6665 82.7014 30.3708C84.0266 32.0751 85.8798 33.2916 87.9706 33.8298Z" fill="black"/>
<path d="M63.5588 38.7122V46.3823C63.5588 47.0298 63.816 47.6507 64.2738 48.1085C64.7316 48.5663 65.3526 48.8235 66 48.8235C66.6474 48.8235 67.2684 48.5663 67.7262 48.1085C68.184 47.6507 68.4412 47.0298 68.4412 46.3823V38.7122C70.532 38.174 72.3851 36.9574 73.7104 35.2531C75.0357 33.5488 75.7582 31.453 75.7647 29.2941C75.7647 24.4344 71.8705 17.0882 66 17.0882C60.1295 17.0882 56.2353 24.4344 56.2353 29.2941C56.2418 31.453 56.9643 33.5488 58.2896 35.2531C59.6149 36.9574 61.4681 38.174 63.5588 38.7122ZM66 21.9706C68.3577 21.9706 70.8824 26.2689 70.8824 29.2941C70.8824 30.589 70.368 31.8308 69.4524 32.7465C68.5367 33.6621 67.2949 34.1765 66 34.1765C64.7051 34.1765 63.4633 33.6621 62.5477 32.7465C61.632 31.8308 61.1177 30.589 61.1177 29.2941C61.1177 26.2689 63.6423 21.9706 66 21.9706Z" fill="black"/>
<path d="M51.353 97.647H31.8235C31.1761 97.647 30.5552 97.9042 30.0974 98.3621C29.6396 98.8199 29.3824 99.4408 29.3824 100.088V129.382C29.3824 130.03 29.6396 130.651 30.0974 131.109C30.5552 131.566 31.1761 131.824 31.8235 131.824H51.353C52.0004 131.824 52.6213 131.566 53.0791 131.109C53.5369 130.651 53.7941 130.03 53.7941 129.382V100.088C53.7941 99.4408 53.5369 98.8199 53.0791 98.3621C52.6213 97.9042 52.0004 97.647 51.353 97.647ZM48.9118 126.941H34.2647V102.529H48.9118V126.941Z" fill="black"/>
<path d="M105.059 131.824H124.588C125.236 131.824 125.857 131.566 126.314 131.109C126.772 130.651 127.029 130.03 127.029 129.382V100.088C127.029 99.4408 126.772 98.8199 126.314 98.3621C125.857 97.9042 125.236 97.647 124.588 97.647H105.059C104.411 97.647 103.79 97.9042 103.333 98.3621C102.875 98.8199 102.618 99.4408 102.618 100.088V129.382C102.618 130.03 102.875 130.651 103.333 131.109C103.79 131.566 104.411 131.824 105.059 131.824ZM107.5 102.529H122.147V126.941H107.5V102.529Z" fill="black"/>
<path d="M51.353 136.706H31.8235C31.1761 136.706 30.5552 136.963 30.0974 137.421C29.6396 137.879 29.3824 138.5 29.3824 139.147C29.3824 139.794 29.6396 140.415 30.0974 140.873C30.5552 141.331 31.1761 141.588 31.8235 141.588H51.353C52.0004 141.588 52.6213 141.331 53.0791 140.873C53.5369 140.415 53.7941 139.794 53.7941 139.147C53.7941 138.5 53.5369 137.879 53.0791 137.421C52.6213 136.963 52.0004 136.706 51.353 136.706Z" fill="black"/>
<path d="M105.059 141.588H124.588C125.236 141.588 125.857 141.331 126.314 140.873C126.772 140.415 127.029 139.794 127.029 139.147C127.029 138.5 126.772 137.879 126.314 137.421C125.857 136.963 125.236 136.706 124.588 136.706H105.059C104.411 136.706 103.79 136.963 103.333 137.421C102.875 137.879 102.618 138.5 102.618 139.147C102.618 139.794 102.875 140.415 103.333 140.873C103.79 141.331 104.411 141.588 105.059 141.588Z" fill="black"/>
</svg>
