<svg width="121" height="119" viewBox="0 0 121 119" fill="none" xmlns="http://www.w3.org/2000/svg">
<g filter="url(#filter0_d_117_112)">
<path fill-rule="evenodd" clip-rule="evenodd" d="M115.185 18.3952C115.203 18.5941 115.212 18.7933 115.212 18.9927H114.834L61.0954 110.5L4.86734 18.9927H4.29759C4.29759 18.7126 4.31567 18.4329 4.35173 18.1536L4 17.5812L4.45175 17.5775C4.89021 15.5679 6.26049 13.5919 8.51902 11.7245C11.306 9.42021 15.391 7.32647 20.5406 5.56283C25.6903 3.7992 31.8039 2.40021 38.5323 1.44573C45.2607 0.49126 52.4721 0 59.7548 0C67.0376 0 74.249 0.491259 80.9774 1.44573C87.7058 2.4002 93.8194 3.7992 98.969 5.56283C104.119 7.32647 108.204 9.42021 110.991 11.7245C112.911 13.3124 114.189 14.9789 114.799 16.6778L116.2 16.6664L115.185 18.3952Z" fill="#FFE589"/>
</g>
<path d="M25.5176 18.5C44.362 5.22907 79.4674 7.84177 93.1448 18.5" stroke="#E5E5E5" stroke-width="5"/>
<ellipse cx="80.3366" cy="34.5" rx="9.22189" ry="8.5" fill="#EBA08F"/>
<ellipse cx="53.44" cy="51.5" rx="9.47805" ry="8.5" fill="#EBA08F"/>
<path d="M76.1506 75.8678C74.7304 75.1688 73.1667 74.7211 71.5487 74.5506C69.9307 74.38 68.2901 74.4898 66.7207 74.8737C65.1512 75.2576 63.6835 75.908 62.4015 76.788C61.1195 77.6679 60.0482 78.76 59.2488 80.002C58.4495 81.244 57.9376 82.6116 57.7426 84.0266C57.5475 85.4416 57.6731 86.8763 58.112 88.2488C58.551 89.6214 59.2948 90.9049 60.301 92.0261C61.3071 93.1472 62.556 94.0841 63.9762 94.7832L70.0634 85.3255L76.1506 75.8678Z" fill="#EBA08F"/>
<path d="M26.5538 48.0087C28.009 47.367 29.3054 46.4809 30.3689 45.401C31.4325 44.3211 32.2424 43.0686 32.7525 41.715C33.2626 40.3614 33.4628 38.9331 33.3417 37.5118C33.2206 36.0905 32.7806 34.704 32.0468 33.4314C31.313 32.1589 30.2998 31.0251 29.065 30.095C27.8302 29.1649 26.398 28.4566 24.8501 28.0105C23.3023 27.5644 21.6692 27.3893 20.044 27.4952C18.4188 27.6011 16.8333 27.9859 15.3782 28.6276L20.966 38.3182L26.5538 48.0087Z" fill="#EBA08F"/>
<path d="M50.1098 26L55.4341 28.375V33.125L50.1098 35.5L44.7856 33.125V28.375L50.1098 26Z" fill="#CACF94"/>
<path d="M77.2627 54.5L82.5869 56.75V61.25L77.2627 63.5L71.9384 61.25V56.75L77.2627 54.5Z" fill="#CACF94"/>
<defs>
<filter id="filter0_d_117_112" x="0" y="0" width="120.2" height="118.5" filterUnits="userSpaceOnUse" color-interpolation-filters="sRGB">
<feFlood flood-opacity="0" result="BackgroundImageFix"/>
<feColorMatrix in="SourceAlpha" type="matrix" values="0 0 0 0 0 0 0 0 0 0 0 0 0 0 0 0 0 0 127 0" result="hardAlpha"/>
<feOffset dy="4"/>
<feGaussianBlur stdDeviation="2"/>
<feComposite in2="hardAlpha" operator="out"/>
<feColorMatrix type="matrix" values="0 0 0 0 0 0 0 0 0 0 0 0 0 0 0 0 0 0 0.25 0"/>
<feBlend mode="normal" in2="BackgroundImageFix" result="effect1_dropShadow_117_112"/>
<feBlend mode="normal" in="SourceGraphic" in2="effect1_dropShadow_117_112" result="shape"/>
</filter>
</defs>
</svg>
