<svg width="148" height="157" viewBox="0 0 148 157" fill="none" xmlns="http://www.w3.org/2000/svg">
<path d="M43.2076 141.588H5.73532V24.4119H98.5V73.4309C98.5 74.0783 98.7572 74.6992 99.215 75.157C99.6728 75.6149 100.294 75.872 100.941 75.872C101.589 75.872 102.21 75.6149 102.667 75.157C103.125 74.6992 103.382 74.0783 103.382 73.4309V21.9707C103.382 21.3232 103.125 20.7023 102.667 20.2445C102.21 19.7867 101.589 19.5295 100.941 19.5295H93.6177V2.44127C93.6177 2.07573 93.5357 1.71485 93.3776 1.38528C93.2195 1.0557 92.9894 0.765848 92.7042 0.537124C92.4191 0.308399 92.0862 0.146644 91.7302 0.0638044C91.3742 -0.0190355 91.0041 -0.0208446 90.6473 0.0585105L2.7649 19.5879C2.236 19.7334 1.76648 20.042 1.42319 20.4698C1.07991 20.8976 0.880358 21.4228 0.852966 21.9707V144.029C0.852966 144.677 1.11016 145.298 1.56797 145.756C2.02578 146.213 2.6467 146.471 3.29414 146.471H43.2076C43.8551 146.471 44.476 146.213 44.9338 145.756C45.3916 145.298 45.6488 144.677 45.6488 144.029C45.6488 143.382 45.3916 142.761 44.9338 142.303C44.476 141.846 43.8551 141.588 43.2076 141.588ZM88.7353 19.5295H25.5314L88.7353 5.48439V19.5295Z" fill="black"/>
<path d="M91.1765 77.337C91.8239 77.337 92.4448 77.0798 92.9026 76.622C93.3604 76.1642 93.6176 75.5433 93.6177 74.8958V43.9413C93.6177 43.2938 93.3605 42.6729 92.9027 42.2151C92.4449 41.7573 91.8239 41.5001 91.1765 41.5001C88.5876 41.4971 86.1057 40.4674 84.2751 38.6368C82.4445 36.8062 81.4147 34.3242 81.4118 31.7354C81.4118 31.088 81.1546 30.467 80.6968 30.0092C80.239 29.5514 79.6181 29.2942 78.9706 29.2942H25.2647C24.6173 29.2942 23.9964 29.5514 23.5386 30.0092C23.0808 30.467 22.8236 31.088 22.8236 31.7354C22.8206 34.3242 21.7909 36.8062 19.9603 38.6368C18.1297 40.4674 15.6477 41.4971 13.0589 41.5001C12.4114 41.5001 11.7905 41.7573 11.3327 42.2151C10.8749 42.6729 10.6177 43.2938 10.6177 43.9413V122.059C10.6177 122.706 10.8749 123.327 11.3327 123.785C11.7905 124.243 12.4114 124.5 13.0589 124.5C15.6477 124.503 18.1297 125.533 19.9603 127.363C21.7909 129.194 22.8206 131.676 22.8236 134.265C22.8236 134.912 23.0808 135.533 23.5386 135.991C23.9964 136.449 24.6173 136.706 25.2647 136.706H49.6765C50.3239 136.706 50.9449 136.449 51.4027 135.991C51.8605 135.533 52.1177 134.912 52.1177 134.265C52.1177 133.617 51.8605 132.996 51.4027 132.539C50.9449 132.081 50.3239 131.824 49.6765 131.824H27.5021C26.9904 128.827 25.5609 126.062 23.4111 123.913C21.2612 121.763 18.497 120.333 15.5 119.822V46.1786C18.497 45.6669 21.2612 44.2374 23.4111 42.0876C25.5609 39.9378 26.9904 37.1735 27.5021 34.1766H76.7333C77.245 37.1735 78.6744 39.9378 80.8243 42.0876C82.9741 44.2374 85.7383 45.6669 88.7353 46.1786V74.8958C88.7354 75.5433 88.9926 76.1642 89.4504 76.622C89.9082 77.0798 90.5291 77.337 91.1765 77.337Z" fill="black"/>
<path d="M140 141.588V134.265C139.984 124.966 136.847 115.941 131.094 108.636C125.34 101.331 117.301 96.1677 108.265 93.9732V90.3236C108.265 87.7338 107.236 85.2502 105.405 83.4189C103.573 81.5877 101.09 80.5589 98.5 80.5589C95.9103 80.5589 93.4266 81.5877 91.5953 83.4189C89.7641 85.2502 88.7353 87.7338 88.7353 90.3236V93.9732C79.699 96.1677 71.6603 101.331 65.9065 108.636C60.1526 115.941 57.0164 124.966 57 134.265V141.588C55.0577 141.588 53.1949 142.36 51.8215 143.733C50.4481 145.107 49.6765 146.97 49.6765 148.912C49.6765 150.854 50.4481 152.717 51.8215 154.09C53.1949 155.464 55.0577 156.235 57 156.235H140C141.942 156.235 143.805 155.464 145.179 154.09C146.552 152.717 147.324 150.854 147.324 148.912C147.324 146.97 146.552 145.107 145.179 143.733C143.805 142.36 141.942 141.588 140 141.588ZM93.6177 90.3236C93.6177 89.0287 94.1321 87.7869 95.0477 86.8713C95.9633 85.9556 97.2052 85.4413 98.5 85.4413C99.7949 85.4413 101.037 85.9556 101.952 86.8713C102.868 87.7869 103.382 89.0287 103.382 90.3236V93.0783C100.141 92.6603 96.8592 92.6603 93.6177 93.0783V90.3236ZM61.8824 136.706H118.029C118.677 136.706 119.298 136.449 119.756 135.991C120.213 135.533 120.471 134.912 120.471 134.265C120.471 133.617 120.213 132.996 119.756 132.539C119.298 132.081 118.677 131.824 118.029 131.824H62.0061C62.6144 122.559 66.7238 113.872 73.5009 107.525C80.2779 101.179 89.2152 97.6472 98.5 97.6472C107.785 97.6472 116.722 101.179 123.499 107.525C130.276 113.872 134.386 122.559 134.994 131.824H127.794C127.147 131.824 126.526 132.081 126.068 132.539C125.61 132.996 125.353 133.617 125.353 134.265C125.353 134.912 125.61 135.533 126.068 135.991C126.526 136.449 127.147 136.706 127.794 136.706H135.118V141.588H61.8824V136.706ZM140 151.353H57C56.3526 151.353 55.7317 151.096 55.2739 150.638C54.816 150.18 54.5589 149.559 54.5589 148.912C54.5589 148.264 54.816 147.643 55.2739 147.186C55.7317 146.728 56.3526 146.471 57 146.471H140C140.647 146.471 141.268 146.728 141.726 147.186C142.184 147.643 142.441 148.264 142.441 148.912C142.441 149.559 142.184 150.18 141.726 150.638C141.268 151.096 140.647 151.353 140 151.353Z" fill="black"/>
<path d="M57 39.0589C56.3526 39.0589 55.7317 39.3161 55.2739 39.7739C54.816 40.2317 54.5589 40.8526 54.5589 41.5001V48.8236C54.5654 50.9825 55.2879 53.0783 56.6131 54.7826C57.9384 56.4869 59.7916 57.7035 61.8824 58.2417V70.7942C61.8824 71.4416 62.1396 72.0626 62.5974 72.5204C63.0552 72.9782 63.6761 73.2354 64.3236 73.2354C64.971 73.2354 65.5919 72.9782 66.0497 72.5204C66.5075 72.0626 66.7647 71.4416 66.7647 70.7942V58.2417C68.8555 57.7035 70.7087 56.4869 72.034 54.7826C73.3592 53.0783 74.0817 50.9825 74.0883 48.8236V41.5001C74.0883 40.8526 73.8311 40.2317 73.3733 39.7739C72.9155 39.3161 72.2945 39.0589 71.6471 39.0589C70.9996 39.0589 70.3787 39.3161 69.9209 39.7739C69.4631 40.2317 69.2059 40.8526 69.2059 41.5001V48.8236C69.2032 49.6768 68.9763 50.5142 68.5478 51.252C68.1194 51.9897 67.5044 52.6019 66.7647 53.027V41.5001C66.7647 40.8526 66.5075 40.2317 66.0497 39.7739C65.5919 39.3161 64.971 39.0589 64.3236 39.0589C63.6761 39.0589 63.0552 39.3161 62.5974 39.7739C62.1396 40.2317 61.8824 40.8526 61.8824 41.5001V53.027C61.1427 52.6019 60.5278 51.9897 60.0993 51.252C59.6708 50.5142 59.4439 49.6768 59.4412 48.8236V41.5001C59.4412 40.8526 59.184 40.2317 58.7262 39.7739C58.2684 39.3161 57.6475 39.0589 57 39.0589Z" fill="black"/>
<path d="M39.9118 73.2354C40.5592 73.2354 41.1802 72.9782 41.638 72.5204C42.0958 72.0626 42.353 71.4416 42.353 70.7942V60.6828C44.4437 60.1446 46.2969 58.9281 47.6222 57.2238C48.9475 55.5195 49.67 53.4237 49.6765 51.2648C49.6765 46.4051 45.7823 39.0589 39.9118 39.0589C34.0413 39.0589 30.1471 46.4051 30.1471 51.2648C30.1536 53.4237 30.8761 55.5195 32.2014 57.2238C33.5267 58.9281 35.3798 60.1446 37.4706 60.6828V70.7942C37.4706 71.4416 37.7278 72.0626 38.1856 72.5204C38.6434 72.9782 39.2644 73.2354 39.9118 73.2354ZM35.0294 51.2648C35.0294 48.2395 37.5541 43.9413 39.9118 43.9413C42.2695 43.9413 44.7941 48.2395 44.7941 51.2648C44.7941 52.5597 44.2798 53.8015 43.3641 54.7171C42.4485 55.6327 41.2067 56.1471 39.9118 56.1471C38.6169 56.1471 37.3751 55.6327 36.4594 54.7171C35.5438 53.8015 35.0294 52.5597 35.0294 51.2648Z" fill="black"/>
<path d="M32.5883 80.5589H27.7059C27.0585 80.5589 26.4375 80.8161 25.9797 81.2739C25.5219 81.7317 25.2647 82.3526 25.2647 83.0001C25.2647 83.6475 25.5219 84.2684 25.9797 84.7262C26.4375 85.1841 27.0585 85.4412 27.7059 85.4412H32.5883C33.2357 85.4412 33.8566 85.1841 34.3144 84.7262C34.7722 84.2684 35.0294 83.6475 35.0294 83.0001C35.0294 82.3526 34.7722 81.7317 34.3144 81.2739C33.8566 80.8161 33.2357 80.5589 32.5883 80.5589Z" fill="black"/>
<path d="M78.9706 83.0001C78.9706 82.3526 78.7134 81.7317 78.2556 81.2739C77.7978 80.8161 77.1769 80.5589 76.5294 80.5589H42.353C41.7055 80.5589 41.0846 80.8161 40.6268 81.2739C40.169 81.7317 39.9118 82.3526 39.9118 83.0001C39.9118 83.6475 40.169 84.2684 40.6268 84.7262C41.0846 85.1841 41.7055 85.4412 42.353 85.4412H76.5294C77.1769 85.4412 77.7978 85.1841 78.2556 84.7262C78.7134 84.2684 78.9706 83.6475 78.9706 83.0001Z" fill="black"/>
<path d="M32.5883 92.7648H27.7059C27.0585 92.7648 26.4375 93.022 25.9797 93.4798C25.5219 93.9376 25.2647 94.5585 25.2647 95.206C25.2647 95.8534 25.5219 96.4743 25.9797 96.9321C26.4375 97.3899 27.0585 97.6471 27.7059 97.6471H32.5883C33.2357 97.6471 33.8566 97.3899 34.3144 96.9321C34.7722 96.4743 35.0294 95.8534 35.0294 95.206C35.0294 94.5585 34.7722 93.9376 34.3144 93.4798C33.8566 93.022 33.2357 92.7648 32.5883 92.7648Z" fill="black"/>
<path d="M69.2059 95.206C69.2059 94.5585 68.9487 93.9376 68.4909 93.4798C68.0331 93.022 67.4122 92.7648 66.7647 92.7648H42.353C41.7055 92.7648 41.0846 93.022 40.6268 93.4798C40.169 93.9376 39.9118 94.5585 39.9118 95.206C39.9118 95.8534 40.169 96.4743 40.6268 96.9321C41.0846 97.3899 41.7055 97.6471 42.353 97.6471H66.7647C67.4122 97.6471 68.0331 97.3899 68.4909 96.9321C68.9487 96.4743 69.2059 95.8534 69.2059 95.206Z" fill="black"/>
<path d="M32.5883 104.971H27.7059C27.0585 104.971 26.4375 105.228 25.9797 105.686C25.5219 106.143 25.2647 106.764 25.2647 107.412C25.2647 108.059 25.5219 108.68 25.9797 109.138C26.4375 109.596 27.0585 109.853 27.7059 109.853H32.5883C33.2357 109.853 33.8566 109.596 34.3144 109.138C34.7722 108.68 35.0294 108.059 35.0294 107.412C35.0294 106.764 34.7722 106.143 34.3144 105.686C33.8566 105.228 33.2357 104.971 32.5883 104.971Z" fill="black"/>
<path d="M59.4412 107.412C59.4412 106.764 59.184 106.143 58.7262 105.686C58.2684 105.228 57.6475 104.971 57 104.971H42.353C41.7055 104.971 41.0846 105.228 40.6268 105.686C40.169 106.143 39.9118 106.764 39.9118 107.412C39.9118 108.059 40.169 108.68 40.6268 109.138C41.0846 109.596 41.7055 109.853 42.353 109.853H57C57.6475 109.853 58.2684 109.596 58.7262 109.138C59.184 108.68 59.4412 108.059 59.4412 107.412Z" fill="black"/>
<path d="M32.5883 117.177H27.7059C27.0585 117.177 26.4375 117.434 25.9797 117.892C25.5219 118.349 25.2647 118.97 25.2647 119.618C25.2647 120.265 25.5219 120.886 25.9797 121.344C26.4375 121.802 27.0585 122.059 27.7059 122.059H32.5883C33.2357 122.059 33.8566 121.802 34.3144 121.344C34.7722 120.886 35.0294 120.265 35.0294 119.618C35.0294 118.97 34.7722 118.349 34.3144 117.892C33.8566 117.434 33.2357 117.177 32.5883 117.177Z" fill="black"/>
<path d="M42.353 117.177C41.7055 117.177 41.0846 117.434 40.6268 117.892C40.169 118.349 39.9118 118.97 39.9118 119.618C39.9118 120.265 40.169 120.886 40.6268 121.344C41.0846 121.802 41.7055 122.059 42.353 122.059H47.2353C47.8828 122.059 48.5037 121.802 48.9615 121.344C49.4193 120.886 49.6765 120.265 49.6765 119.618C49.6765 118.97 49.4193 118.349 48.9615 117.892C48.5037 117.434 47.8828 117.177 47.2353 117.177H42.353Z" fill="black"/>
<path d="M13.0589 34.1766C14.4071 34.1766 15.5 33.0836 15.5 31.7354C15.5 30.3872 14.4071 29.2942 13.0589 29.2942C11.7106 29.2942 10.6177 30.3872 10.6177 31.7354C10.6177 33.0836 11.7106 34.1766 13.0589 34.1766Z" fill="black"/>
<path d="M91.1765 34.1766C92.5247 34.1766 93.6177 33.0836 93.6177 31.7354C93.6177 30.3872 92.5247 29.2942 91.1765 29.2942C89.8283 29.2942 88.7353 30.3872 88.7353 31.7354C88.7353 33.0836 89.8283 34.1766 91.1765 34.1766Z" fill="black"/>
<path d="M13.0589 136.706C14.4071 136.706 15.5 135.613 15.5 134.265C15.5 132.917 14.4071 131.824 13.0589 131.824C11.7106 131.824 10.6177 132.917 10.6177 134.265C10.6177 135.613 11.7106 136.706 13.0589 136.706Z" fill="black"/>
</svg>
