<svg width="18" height="18" viewBox="0 0 18 18" fill="none" xmlns="http://www.w3.org/2000/svg">
<path d="M8.71875 0.701843C3.90234 0.701843 0 4.35777 0 8.87003C0 13.3823 3.90234 17.0382 8.71875 17.0382C13.5352 17.0382 17.4375 13.3823 17.4375 8.87003C17.4375 4.35777 13.5352 0.701843 8.71875 0.701843ZM16.3125 8.87003C16.3125 12.7796 12.934 15.9843 8.71875 15.9843C4.5457 15.9843 1.125 12.8191 1.125 8.87003C1.125 4.9605 4.50352 1.7558 8.71875 1.7558C12.8918 1.7558 16.3125 4.92098 16.3125 8.87003ZM12.0938 7.81607L8.71875 10.9779L5.34375 7.81607H12.0938ZM5.34375 6.76211C4.34531 6.76211 3.83906 7.89841 4.54922 8.56043L7.92422 11.7223C8.36367 12.134 9.07734 12.134 9.5168 11.7223L12.8918 8.56043C13.5984 7.89841 13.0992 6.76211 12.0973 6.76211H5.34375Z" fill="black"/>
</svg>
